HIERARCHY
ROOT Hips
{
	OFFSET 0.000000 0.000000 0.000000 
	CHANNELS 6 Xposition Yposition Zposition Zrotation Yrotation Xrotation
	JOINT LeftUpLeg
	{
		OFFSET 1.363060 -1.794630 0.839290 
		CHANNELS 3 Zrotation Yrotation Xrotation
		JOINT LeftLeg
		{
			OFFSET 2.448110 -6.726130 0.000000 
			CHANNELS 3 Zrotation Yrotation Xrotation
			JOINT LeftFoot
			{
				OFFSET 2.562200 -7.039590 0.000000 
				CHANNELS 3 Zrotation Yrotation Xrotation
				JOINT LeftToeBase
				{
					OFFSET 0.157640 -0.433110 2.322550 
					CHANNELS 3 Zrotation Yrotation Xrotation
					End Site
					{
						OFFSET 0.000000 0.000000 0.000000 
					}
				}
			}
		}
	}
	JOINT RightUpLeg
	{
		OFFSET -1.305520 -1.794630 0.839290 
		CHANNELS 3 Zrotation Yrotation Xrotation
		JOINT RightLeg
		{
			OFFSET -2.542530 -6.985550 0.000000 
			CHANNELS 3 Zrotation Yrotation Xrotation
			JOINT RightFoot
			{
				OFFSET -2.568260 -7.056230 0.000000 
				CHANNELS 3 Zrotation Yrotation Xrotation
				JOINT RightToeBase
				{
					OFFSET -0.164730 -0.452590 2.363150 
					CHANNELS 3 Zrotation Yrotation Xrotation
					End Site
					{
						OFFSET 0.000000 0.000000 0.000000 
					}
				}
			}
		}
	}
	JOINT Spine
	{
		OFFSET 0.028270 2.035590 -0.193380 
		CHANNELS 3 Zrotation Yrotation Xrotation
		JOINT Spine1
		{
			OFFSET 0.056720 2.048850 -0.042750 
			CHANNELS 3 Zrotation Yrotation Xrotation
			JOINT Neck1
			{
				OFFSET -0.054170 1.746240 0.172020 
				CHANNELS 3 Zrotation Yrotation Xrotation
				JOINT Head
				{
					OFFSET 0.104070 1.761360 -0.123970 
					CHANNELS 3 Zrotation Yrotation Xrotation
					End Site
					{
						OFFSET 0.000000 0.000000 0.000000 
					}
				}
			}
			JOINT LeftArm
			{
				OFFSET 3.362410 1.200890 -0.311210 
				CHANNELS 3 Zrotation Yrotation Xrotation
				JOINT LeftForeArm
				{
					OFFSET 4.983000 -0.000000 -0.000000 
					CHANNELS 3 Zrotation Yrotation Xrotation
					JOINT LeftHand
					{
						OFFSET 3.483560 -0.000000 -0.000000 
						CHANNELS 3 Zrotation Yrotation Xrotation
						JOINT LeftHandIndex1
						{
							OFFSET 0.715260 -0.000000 -0.000000 
							CHANNELS 3 Zrotation Yrotation Xrotation
							End Site
							{
								OFFSET 0.000000 0.000000 0.000000 
							}
						}
					}
				}
			}
			JOINT RightArm
			{
				OFFSET -3.136600 1.374050 -0.404650 
				CHANNELS 3 Zrotation Yrotation Xrotation
				JOINT RightForeArm
				{
					OFFSET -5.241900 -0.000000 -0.000000 
					CHANNELS 3 Zrotation Yrotation Xrotation
					JOINT RightHand
					{
						OFFSET -3.444170 -0.000000 -0.000000 
						CHANNELS 3 Zrotation Yrotation Xrotation
						JOINT RightHandIndex1
						{
							OFFSET -0.622530 -0.000000 -0.000000 
							CHANNELS 3 Zrotation Yrotation Xrotation
							End Site
							{
								OFFSET 0.000000 0.000000 0.000000 
							}
						}
					}
				}
			}
		}
	}
}
MOTION
Frames: 9
Frame Time: 0.041667
-4.553037 16.924218 7.793069 0.022879 -16.003548 6.613002 -31.734009 -10.597633 -20.947917 -1.376513 9.180227 20.350590 -0.424340 7.901018 -2.688443 0.576100 4.860600 13.511300 31.962844 1.357123 2.553898 -1.939732 -10.580430 34.847983 -1.341524 3.161259 -16.147953 -1.189900 6.922200 -19.485100 0.478265 1.764391 -4.671061 -6.299431 0.704094 0.394053 5.074493 2.694402 19.610218 -3.250900 3.329100 17.960800 -98.916454 9.738413 7.389392 22.121521 -31.031034 -4.012754 -0.151512 3.955453 23.823011 -7.125000 0.000000 0.000000 97.256235 2.578812 18.344805 -16.380684 28.746583 -2.676230 -1.384195 -2.572010 18.128091 7.125000 0.000000 0.000000 
-4.536608 16.934919 7.900181 0.319071 -16.050358 6.502059 -32.401557 -9.925840 -20.484236 -1.406699 9.016217 20.029500 -0.374073 7.354613 -2.621027 0.572100 4.843900 13.464000 31.276565 1.416619 1.865731 -2.283830 -11.027682 36.369820 -1.292704 3.568836 -15.357771 -1.290900 7.199200 -20.306800 0.462707 1.774018 -4.679374 -6.360659 0.709851 0.338303 5.064931 2.711196 19.584977 -3.264200 3.334000 17.932500 -98.828184 9.740899 7.630434 22.191313 -31.089805 -4.029694 -0.164470 3.955248 23.751003 -7.125000 0.000000 0.000000 97.386264 2.497869 17.376355 -15.663526 28.072267 -2.519688 -1.369641 -2.545417 19.440143 7.125000 0.000000 0.000000 
-4.520611 16.945511 8.004806 0.559543 -16.089156 6.422134 -32.978881 -9.365519 -20.030473 -1.434381 8.862723 19.725479 -0.335735 6.915044 -2.611072 0.568500 4.829100 13.421700 30.661250 1.511487 1.179649 -2.614791 -11.451770 37.819093 -1.229668 3.938200 -14.451520 -1.376700 7.425000 -20.980800 0.451974 1.782370 -4.688264 -6.410954 0.714836 0.284447 5.052738 2.733671 19.552799 -3.276300 3.338000 17.900300 -98.743386 9.722232 7.880818 22.274106 -31.163264 -4.051403 -0.171038 3.952797 23.690742 -7.125000 0.000000 0.000000 97.478664 2.419269 16.417223 -14.996536 27.428348 -2.379160 -1.354270 -2.516763 20.698304 7.125000 0.000000 0.000000 
-4.504939 16.955995 8.106621 0.748133 -16.128114 6.369151 -33.469647 -8.912868 -19.582744 -1.459716 8.718843 19.438156 -0.309020 6.588508 -2.658236 0.565700 4.817200 13.388000 30.116761 1.642894 0.495608 -2.931576 -11.854450 39.196010 -1.153918 4.259107 -13.437171 -1.445600 7.600700 -21.507700 0.445592 1.792723 -4.697675 -6.446416 0.720795 0.229467 5.039409 2.760344 19.513222 -3.285600 3.340000 17.861900 -98.663018 9.680146 8.134658 22.369795 -31.251267 -4.078030 -0.172872 3.949728 23.641387 -7.125000 0.000000 0.000000 97.531357 2.336895 15.492793 -14.393868 26.827648 -2.255805 -1.338977 -2.486800 21.877244 7.125000 0.000000 0.000000 
-4.489375 16.966587 8.205734 0.895158 -16.159549 6.337461 -33.894941 -8.533223 -19.140120 -1.483571 8.580245 19.159044 -0.289619 6.338804 -2.726714 0.560800 4.796800 13.329900 29.625939 1.788475 -0.188243 -3.235364 -12.236718 40.505500 -1.068487 4.528128 -12.325204 -1.506600 7.752300 -21.964100 0.443884 1.798568 -4.706658 -6.464354 0.724871 0.179268 5.022182 2.795073 19.466813 -3.295900 3.342300 17.819600 -98.590657 9.612392 8.385096 22.478617 -31.356402 -4.110824 -0.168464 3.947220 23.590905 -7.125000 0.000000 0.000000 97.543373 2.253049 14.620343 -13.866410 26.280595 -2.150153 -1.324326 -2.455340 22.974452 7.125000 0.000000 0.000000 
-4.474352 16.977071 8.301929 0.997998 -16.194222 6.318459 -34.253003 -8.196506 -18.704402 -1.505141 8.447052 18.892395 -0.275345 6.140775 -2.824822 0.560100 4.793800 13.321300 29.194997 1.947820 -0.863527 -3.525547 -12.599301 41.747751 -0.974009 4.727333 -11.118732 -1.571300 7.909300 -22.438900 0.446187 1.804905 -4.715646 -6.467327 0.729273 0.126228 5.003537 2.835280 19.414645 -3.305600 3.344800 17.773800 -98.524132 9.526794 8.633064 22.600953 -31.476909 -4.149377 -0.157444 3.944296 23.530198 -7.125000 0.000000 0.000000 97.521050 2.166056 13.803441 -13.410302 25.785410 -2.060277 -1.313496 -2.419051 23.999261 7.125000 0.000000 0.000000 
-4.458896 16.987231 8.395529 1.080189 -16.219831 6.305060 -34.579560 -7.863739 -18.281904 -1.524771 8.318251 18.636605 -0.261231 5.942073 -2.927510 0.562700 4.804800 13.352500 28.790455 2.091681 -1.533187 -3.804623 -12.941886 42.927523 -0.874900 4.868854 -9.827534 -1.642600 8.078100 -22.951500 0.451680 1.803925 -4.722080 -6.460051 0.730573 0.085812 4.977766 2.883772 19.353900 -3.323700 3.350400 17.720300 -98.456852 9.415449 8.893462 22.740761 -31.620132 -4.196486 -0.144449 3.946140 23.422400 -7.125000 0.000000 0.000000 97.467140 2.078147 13.062311 -13.038864 25.358440 -1.987911 -1.309936 -2.376967 24.909668 7.125000 0.000000 0.000000 
-4.443872 16.997175 8.486104 1.113591 -16.248436 6.295937 -34.843032 -7.523196 -17.871528 -1.541424 8.193101 18.393695 -0.248094 5.747950 -3.037493 0.568400 4.828600 13.420400 28.451141 2.240239 -2.184576 -4.070511 -13.267205 44.045627 -0.772208 4.936132 -8.458422 -1.720500 8.258000 -23.500400 0.460925 1.802259 -4.727589 -6.447026 0.731363 0.044383 4.948457 2.934866 19.287492 -3.346900 3.357900 17.665300 -98.387429 9.290294 9.156878 22.897733 -31.780077 -4.249961 -0.127982 3.947060 23.277658 -7.125000 0.000000 0.000000 97.389917 1.993266 12.394995 -12.738992 24.992140 -1.930343 -1.307712 -2.342244 25.732082 7.125000 0.000000 0.000000 
-4.429064 17.006794 8.574300 1.130111 -16.275446 6.282901 -35.079531 -7.182316 -17.460763 -1.556738 8.068561 18.153988 -0.235808 5.562567 -3.155884 0.577500 4.866100 13.527100 28.141395 2.384963 -2.818709 -4.326642 -13.575592 45.110622 -0.670336 4.946936 -7.018416 -1.794900 8.425200 -24.013100 0.472244 1.797511 -4.731530 -6.427281 0.730834 0.006531 4.917927 2.988356 19.216263 -3.373400 3.367000 17.609000 -98.312252 9.155178 9.429898 23.078295 -31.963115 -4.311374 -0.112015 3.947251 23.084089 -7.125000 0.000000 0.000000 97.294601 1.911795 11.811347 -12.502555 24.682435 -1.886597 -1.315652 -2.309538 26.432296 7.125000 0.000000 0.000000 
